{"accessors":[{"bufferView":0,"byteOffset":0,"componentType":5126,"count":2373,"max":[239.708160400391,0.500000059604645,165.523254394531],"min":[-163.314071655273,0.0,-123.76293182373],"normalized":false,"type":"VEC3"},{"bufferView":1,"byteOffset":0,"componentType":5126,"count":2373,"max":[0.999954521656036,0.0,0.999989449977875,1.0],"min":[-0.999990582466125,-0.0000215795080293901,-0.999978005886078,1.0],"normalized":false,"type":"VEC4"},{"bufferView":2,"byteOffset":0,"componentType":5126,"count":2373,"max":[0.999978303909302,1.0,0.99994969367981],"min":[-0.999973356723785,-1.0,-0.999953806400299],"normalized":false,"type":"VEC3"},{"bufferView":3,"byteOffset":0,"componentType":5126,"count":2373,"max":[984.858154296875,1.0],"min":[0.0,0.0],"normalized":false,"type":"VEC2"},{"bufferView":4,"byteOffset":0,"componentType":5126,"count":2373,"max":[0.999892055988312,0.999905526638031],"min":[0.0000893016622285359,0.0000944465427892283],"normalized":false,"type":"VEC2"},{"bufferView":5,"byteOffset":0,"componentType":5123,"count":3336,"max":[2372.0],"min":[0.0],"normalized":false,"type":"SCALAR"}],"asset":{"generator":"Godot Engine v4.4.1.stable.official@49a5bc7b616bd04689a2c89e89bda41f50241464","version":"2.0"},"bufferViews":[{"buffer":0,"byteLength":28476,"byteOffset":0,"byteStride":12,"target":34962},{"buffer":0,"byteLength":37968,"byteOffset":28476,"byteStride":16,"target":34962},{"buffer":0,"byteLength":28476,"byteOffset":66444,"byteStride":12,"target":34962},{"buffer":0,"byteLength":18984,"byteOffset":94920,"byteStride":8,"target":34962},{"buffer":0,"byteLength":18984,"byteOffset":113904,"byteStride":8,"target":34962},{"buffer":0,"byteLength":6672,"byteOffset":132888,"target":34963}],"buffers":[{"byteLength":139560,"uri":"road0.bin"}],"extensionsUsed":["GODOT_single_root"],"materials":[{"extensions":{},"pbrMetallicRoughness":{"baseColorFactor":[0.233021974563599,0.233021974563599,0.233021974563599,1.0],"metallicFactor":0.0,"roughnessFactor":1.0}}],"meshes":[{"extras":{"targetNames":[]},"primitives":[{"attributes":{"NORMAL":2,"POSITION":0,"TANGENT":1,"TEXCOORD_0":3,"TEXCOORD_1":4},"indices":5,"material":0,"mode":4}]}],"nodes":[{"children":[1],"name":"Road"},{"mesh":0,"name":"CSGBakedMeshInstance3D"}],"scene":0,"scenes":[{"nodes":[0]}]}